<svg xmlns="http://www.w3.org/2000/svg" xmlns:xlink="http://www.w3.org/1999/xlink" width="1000" zoomAndPan="magnify" viewBox="0 0 750 749.999995" height="1000" preserveAspectRatio="xMidYMid meet" version="1.0"><defs><clipPath id="4e76454fc9"><path d="M 0 214 L 750 214 L 750 537.84375 L 0 537.84375 Z M 0 214 " clip-rule="nonzero"/></clipPath></defs><g clip-path="url(#4e76454fc9)"><path fill="#f1f1f1" d="M 703.746094 265.546875 L 681.609375 253.28125 L 747.957031 214.441406 L 750.164062 291.285156 L 726.597656 278.214844 C 629.835938 443.878906 551.488281 507.59375 482.859375 524.535156 C 435.261719 536.289062 391.644531 526.117188 348.675781 509.875 C 313.507812 496.566406 278.777344 479.171875 242.320312 468.1875 C 207.894531 457.800781 171.847656 453.261719 132.152344 464.773438 C 97.476562 474.832031 60.1875 496.980469 18.75 537.140625 L 0.5625 518.378906 C 61.304688 459.519531 114.429688 436.730469 162.804688 432.578125 C 211.039062 428.441406 254.863281 443.015625 297.515625 460.535156 C 356.074219 484.589844 412.136719 515.09375 476.601562 499.175781 C 541.191406 483.222656 612.769531 421.230469 703.746094 265.546875 Z M 703.746094 265.546875 " fill-opacity="1" fill-rule="evenodd"/></g></svg>