<svg xmlns="http://www.w3.org/2000/svg" xmlns:xlink="http://www.w3.org/1999/xlink" width="40" zoomAndPan="magnify" viewBox="0 0 30 30.000001" height="40" preserveAspectRatio="xMidYMid meet" version="1.0"><defs><clipPath id="08e1283677"><path d="M 1.28125 1 L 28.863281 1 L 28.863281 28 L 1.28125 28 Z M 1.28125 1 " clip-rule="nonzero"/></clipPath><clipPath id="673fc459be"><path d="M 1.28125 6.605469 L 1.28125 22.425781 C 1.28125 25.632812 3.882812 28.234375 7.089844 28.234375 L 22.910156 28.234375 C 26.117188 28.234375 28.71875 25.632812 28.71875 22.425781 L 28.71875 6.605469 C 28.71875 5.066406 28.105469 3.589844 27.015625 2.5 C 25.929688 1.410156 24.453125 0.796875 22.910156 0.796875 L 7.089844 0.796875 C 3.882812 0.796875 1.28125 3.398438 1.28125 6.605469 Z M 1.28125 6.605469 " clip-rule="nonzero"/></clipPath><clipPath id="da68d28323"><path d="M 1.28125 0.796875 L 28.863281 0.796875 L 28.863281 28.378906 L 1.28125 28.378906 Z M 1.28125 0.796875 " clip-rule="nonzero"/></clipPath><clipPath id="e626b3ebf3"><path d="M 1.28125 6.605469 L 1.28125 22.425781 C 1.28125 25.632812 3.882812 28.234375 7.089844 28.234375 L 22.910156 28.234375 C 26.117188 28.234375 28.71875 25.632812 28.71875 22.425781 L 28.71875 6.605469 C 28.71875 5.066406 28.105469 3.589844 27.015625 2.5 C 25.929688 1.410156 24.453125 0.796875 22.910156 0.796875 L 7.089844 0.796875 C 3.882812 0.796875 1.28125 3.398438 1.28125 6.605469 Z M 1.28125 6.605469 " clip-rule="nonzero"/></clipPath><clipPath id="5eaa5dd0ae"><path d="M 3.984375 4.101562 L 25.761719 4.101562 L 25.761719 25.875 L 3.984375 25.875 Z M 3.984375 4.101562 " clip-rule="nonzero"/></clipPath><clipPath id="b003692050"><path d="M 9.792969 9.921875 L 19.953125 9.921875 L 19.953125 20.082031 L 9.792969 20.082031 Z M 9.792969 9.921875 " clip-rule="nonzero"/></clipPath></defs><g clip-path="url(#08e1283677)"><g clip-path="url(#673fc459be)"><path fill="#e87e43" d="M 28.382812 14.75 C 28.238281 14.988281 27.988281 15.132812 27.742188 15.269531 C 27.847656 15.417969 27.84375 15.621094 27.796875 15.796875 C 27.75 15.972656 27.664062 16.140625 27.617188 16.316406 C 27.570312 16.492188 27.582031 16.726562 27.6875 16.875 C 27.546875 16.882812 27.425781 16.996094 27.367188 17.125 C 27.3125 17.253906 27.304688 17.398438 27.289062 17.539062 C 27.277344 17.679688 27.261719 17.828125 27.1875 17.945312 L 27.191406 17.949219 C 27.390625 18.027344 27.601562 18.113281 27.746094 18.277344 C 27.789062 18.328125 27.824219 18.382812 27.84375 18.441406 C 27.894531 18.578125 27.875 18.730469 27.820312 18.863281 C 27.761719 19 27.675781 19.117188 27.585938 19.234375 C 27.699219 19.34375 27.886719 19.472656 27.9375 19.625 C 27.972656 19.722656 27.972656 19.828125 27.988281 19.929688 C 28.039062 20.289062 28.230469 20.625 28.21875 20.988281 C 28.21875 21.027344 28.191406 21.058594 28.15625 21.078125 C 28.125 21.097656 28.089844 21.105469 28.058594 21.125 C 27.945312 21.179688 27.886719 21.308594 27.863281 21.433594 C 27.835938 21.558594 27.839844 21.6875 27.816406 21.8125 C 27.761719 22.066406 27.566406 22.269531 27.398438 22.46875 C 27.492188 22.582031 27.582031 22.699219 27.636719 22.835938 C 27.6875 22.976562 27.695312 23.136719 27.617188 23.261719 C 27.519531 23.414062 27.292969 23.488281 27.117188 23.53125 C 27.246094 23.65625 27.382812 23.792969 27.40625 23.972656 C 27.425781 24.09375 27.386719 24.21875 27.402344 24.339844 C 27.417969 24.449219 27.46875 24.546875 27.539062 24.625 C 27.609375 24.707031 27.691406 24.777344 27.773438 24.84375 C 27.625 25.070312 27.640625 25.390625 27.710938 25.652344 C 27.78125 25.914062 27.90625 26.15625 27.976562 26.421875 C 28.0625 26.753906 28.058594 27.113281 27.957031 27.445312 C 27.507812 27.550781 26.988281 27.550781 26.550781 27.402344 C 26.351562 27.335938 26.15625 27.238281 25.949219 27.195312 C 25.742188 27.148438 25.492188 27.15625 25.324219 27.285156 C 25.246094 27.15625 25.125 27.054688 24.988281 27 C 24.828125 26.9375 24.652344 26.933594 24.480469 26.90625 C 24.308594 26.878906 24.121094 26.804688 24.023438 26.664062 C 23.984375 26.84375 23.898438 27.011719 23.78125 27.152344 C 23.738281 27.203125 23.6875 27.253906 23.621094 27.261719 C 23.570312 27.269531 23.523438 27.253906 23.476562 27.234375 C 23.300781 27.164062 23.128906 27.0625 22.976562 26.953125 C 22.886719 26.949219 22.804688 27.007812 22.742188 27.074219 C 22.679688 27.136719 22.625 27.214844 22.546875 27.261719 C 22.351562 27.386719 22.085938 27.289062 21.867188 27.375 C 21.691406 27.445312 21.539062 27.609375 21.445312 27.773438 C 21.382812 27.722656 21.296875 27.703125 21.21875 27.695312 C 21.136719 27.691406 21.054688 27.691406 20.976562 27.675781 C 20.855469 27.648438 20.75 27.578125 20.636719 27.539062 C 20.46875 27.488281 20.289062 27.503906 20.125 27.449219 C 19.941406 27.390625 19.796875 27.246094 19.65625 27.105469 C 19.484375 27.234375 19.40625 27.265625 19.207031 27.34375 C 19.125 27.375 19.039062 27.402344 18.953125 27.382812 C 18.882812 27.367188 18.828125 27.316406 18.777344 27.265625 C 18.625 27.117188 18.503906 26.925781 18.421875 26.734375 C 18.203125 26.84375 17.933594 26.761719 17.699219 26.835938 C 17.535156 26.886719 17.386719 27.027344 17.332031 27.191406 C 17.214844 27.078125 17.023438 27.078125 16.867188 27.125 C 16.710938 27.171875 16.570312 27.261719 16.414062 27.3125 C 16.203125 27.375 15.96875 27.363281 15.765625 27.273438 L 15.765625 27.226562 C 15.691406 27.519531 15.480469 27.773438 15.210938 27.90625 C 15.132812 27.941406 15.050781 27.96875 14.964844 27.957031 C 14.894531 27.945312 14.832031 27.90625 14.773438 27.863281 C 14.5625 27.714844 14.382812 27.519531 14.246094 27.296875 C 14.007812 27.335938 13.761719 27.378906 13.539062 27.28125 C 13.425781 27.230469 13.324219 27.148438 13.207031 27.105469 C 13.023438 27.039062 12.804688 27.082031 12.660156 27.214844 C 12.632812 27.074219 12.511719 26.957031 12.382812 26.898438 C 12.25 26.839844 12.105469 26.824219 11.964844 26.808594 C 11.820312 26.792969 11.675781 26.777344 11.546875 26.71875 C 11.523438 26.925781 11.4375 27.085938 11.296875 27.242188 C 11.242188 27.304688 11.171875 27.363281 11.089844 27.375 C 11.035156 27.382812 10.980469 27.371094 10.925781 27.359375 C 10.734375 27.304688 10.554688 27.21875 10.394531 27.105469 C 10.132812 27.191406 9.980469 27.464844 9.710938 27.527344 C 9.585938 27.554688 9.449219 27.53125 9.324219 27.558594 C 9.222656 27.578125 9.132812 27.632812 9.035156 27.660156 C 8.863281 27.710938 8.667969 27.6875 8.515625 27.78125 C 8.433594 27.59375 8.234375 27.445312 8.042969 27.390625 C 7.929688 27.355469 7.808594 27.355469 7.691406 27.328125 C 7.472656 27.28125 7.230469 27.113281 7.09375 26.929688 C 6.996094 27.023438 6.976562 27.039062 6.859375 27.109375 C 6.742188 27.175781 6.605469 27.214844 6.472656 27.195312 C 6.347656 27.179688 6.238281 27.109375 6.160156 27.015625 C 6.082031 26.917969 6.015625 26.761719 6 26.640625 C 5.898438 26.804688 5.710938 26.902344 5.519531 26.921875 C 5.386719 26.9375 5.253906 26.917969 5.125 26.941406 C 4.945312 26.972656 4.753906 27.128906 4.675781 27.296875 C 4.515625 27.179688 4.300781 27.164062 4.101562 27.191406 C 3.785156 27.234375 3.488281 27.375 3.179688 27.457031 C 2.824219 27.550781 2.324219 27.554688 2.042969 27.445312 C 1.945312 27.113281 1.9375 26.753906 2.027344 26.421875 C 2.097656 26.160156 2.222656 25.914062 2.292969 25.652344 C 2.363281 25.390625 2.378906 25.070312 2.226562 24.84375 C 2.308594 24.777344 2.394531 24.710938 2.460938 24.628906 C 2.53125 24.546875 2.585938 24.449219 2.597656 24.34375 C 2.613281 24.21875 2.578125 24.09375 2.59375 23.972656 C 2.621094 23.792969 2.757812 23.65625 2.882812 23.535156 C 2.710938 23.488281 2.480469 23.414062 2.386719 23.261719 C 2.308594 23.136719 2.3125 22.976562 2.367188 22.839844 C 2.417969 22.699219 2.511719 22.582031 2.601562 22.46875 C 2.433594 22.273438 2.242188 22.066406 2.1875 21.8125 C 2.160156 21.6875 2.164062 21.558594 2.140625 21.433594 C 2.117188 21.308594 2.058594 21.179688 1.945312 21.125 C 1.910156 21.105469 1.875 21.097656 1.84375 21.078125 C 1.8125 21.058594 1.785156 21.027344 1.785156 20.992188 L 1.785156 20.988281 C 1.769531 20.628906 1.960938 20.289062 2.011719 19.929688 C 2.027344 19.828125 2.03125 19.722656 2.0625 19.625 C 2.113281 19.472656 2.300781 19.347656 2.414062 19.234375 C 2.328125 19.117188 2.238281 19 2.183594 18.867188 C 2.125 18.730469 2.105469 18.578125 2.15625 18.441406 C 2.179688 18.382812 2.214844 18.328125 2.253906 18.277344 C 2.398438 18.113281 2.609375 18.027344 2.8125 17.949219 L 2.816406 17.949219 C 2.742188 17.828125 2.722656 17.679688 2.710938 17.539062 C 2.699219 17.398438 2.6875 17.253906 2.632812 17.125 C 2.574219 16.996094 2.457031 16.882812 2.316406 16.878906 C 2.417969 16.726562 2.429688 16.492188 2.382812 16.316406 C 2.335938 16.140625 2.25 15.972656 2.207031 15.796875 C 2.160156 15.621094 2.15625 15.417969 2.257812 15.269531 C 2.015625 15.132812 1.765625 14.992188 1.617188 14.75 C 1.5625 14.660156 1.527344 14.550781 1.542969 14.449219 C 1.558594 14.371094 1.605469 14.300781 1.652344 14.234375 C 1.734375 14.132812 1.828125 14.039062 1.929688 13.957031 C 2 13.902344 2.074219 13.851562 2.128906 13.78125 C 2.183594 13.714844 2.214844 13.617188 2.183594 13.535156 C 2.167969 13.398438 2.175781 13.230469 2.21875 13.097656 C 2.265625 12.949219 2.375 12.824219 2.421875 12.671875 C 2.472656 12.5 2.433594 12.296875 2.316406 12.160156 C 2.398438 12.128906 2.484375 12.089844 2.542969 12.023438 C 2.597656 11.960938 2.621094 11.882812 2.644531 11.804688 C 2.699219 11.585938 2.71875 11.359375 2.742188 11.136719 C 2.742188 11.113281 2.742188 11.089844 2.730469 11.070312 C 2.71875 11.050781 2.648438 11.03125 2.632812 11.050781 C 2.386719 10.988281 2.179688 10.773438 2.136719 10.519531 C 2.089844 10.269531 2.207031 9.996094 2.421875 9.855469 C 2.234375 9.738281 2.105469 9.53125 2.039062 9.324219 C 1.972656 9.113281 1.949219 8.894531 1.917969 8.675781 C 1.882812 8.460938 1.835938 8.238281 1.722656 8.050781 C 1.898438 7.917969 2.089844 7.789062 2.148438 7.585938 C 2.191406 7.4375 2.179688 7.277344 2.214844 7.128906 C 2.265625 6.917969 2.402344 6.734375 2.585938 6.625 C 2.496094 6.511719 2.40625 6.359375 2.359375 6.222656 C 2.3125 6.082031 2.3125 5.921875 2.390625 5.796875 C 2.484375 5.636719 2.699219 5.554688 2.878906 5.511719 L 2.886719 5.511719 C 2.796875 5.445312 2.800781 5.449219 2.734375 5.359375 C 2.65625 5.25 2.621094 5.109375 2.601562 4.976562 C 2.582031 4.839844 2.574219 4.703125 2.535156 4.574219 C 2.539062 4.480469 2.488281 4.367188 2.410156 4.316406 C 2.359375 4.285156 2.289062 4.261719 2.265625 4.207031 C 2.25 4.171875 2.257812 4.128906 2.277344 4.09375 C 2.296875 4.0625 2.335938 4.03125 2.371094 4.011719 C 2.359375 3.636719 2.207031 3.285156 2.109375 2.921875 C 1.992188 2.480469 1.953125 2.015625 2.003906 1.558594 C 2.285156 1.449219 2.824219 1.476562 3.183594 1.570312 C 3.492188 1.65625 3.789062 1.792969 4.105469 1.835938 C 4.300781 1.863281 4.519531 1.847656 4.679688 1.730469 C 4.753906 1.898438 4.945312 2.054688 5.128906 2.085938 C 5.257812 2.113281 5.390625 2.089844 5.523438 2.105469 C 5.714844 2.125 5.902344 2.222656 6.003906 2.386719 C 6.019531 2.265625 6.085938 2.109375 6.160156 2.011719 C 6.242188 1.917969 6.351562 1.851562 6.472656 1.832031 C 6.609375 1.808594 6.746094 1.851562 6.863281 1.917969 C 6.980469 1.988281 7 2.003906 7.097656 2.097656 C 7.234375 1.914062 7.472656 1.746094 7.695312 1.699219 C 7.8125 1.671875 7.929688 1.671875 8.046875 1.636719 C 8.238281 1.582031 8.4375 1.433594 8.515625 1.246094 C 8.671875 1.339844 8.867188 1.316406 9.039062 1.367188 C 9.136719 1.394531 9.226562 1.449219 9.324219 1.46875 C 9.453125 1.496094 9.585938 1.472656 9.710938 1.5 C 9.980469 1.5625 10.136719 1.835938 10.398438 1.921875 C 10.558594 1.808594 10.738281 1.71875 10.929688 1.667969 C 10.984375 1.65625 11.039062 1.644531 11.089844 1.652344 C 11.175781 1.664062 11.246094 1.722656 11.300781 1.785156 C 11.441406 1.941406 11.523438 2.101562 11.546875 2.308594 C 11.679688 2.25 11.824219 2.234375 11.964844 2.21875 C 12.109375 2.203125 12.253906 2.1875 12.382812 2.128906 C 12.515625 2.070312 12.632812 1.953125 12.664062 1.8125 C 12.808594 1.945312 13.027344 1.988281 13.210938 1.921875 C 13.328125 1.878906 13.425781 1.796875 13.542969 1.746094 C 13.765625 1.648438 14.011719 1.691406 14.25 1.730469 C 14.386719 1.507812 14.566406 1.3125 14.777344 1.164062 C 14.835938 1.121094 14.898438 1.082031 14.96875 1.070312 C 15.050781 1.058594 15.136719 1.085938 15.214844 1.121094 C 15.484375 1.253906 15.691406 1.507812 15.769531 1.800781 L 15.769531 1.753906 C 15.96875 1.664062 16.207031 1.652344 16.417969 1.714844 C 16.574219 1.765625 16.714844 1.855469 16.871094 1.902344 C 17.027344 1.949219 17.214844 1.949219 17.332031 1.835938 C 17.390625 2 17.535156 2.140625 17.699219 2.191406 C 17.933594 2.265625 18.207031 2.183594 18.425781 2.292969 C 18.507812 2.101562 18.628906 1.910156 18.777344 1.761719 C 18.828125 1.710938 18.886719 1.660156 18.957031 1.644531 C 19.039062 1.625 19.128906 1.652344 19.207031 1.683594 C 19.40625 1.761719 19.488281 1.792969 19.660156 1.921875 C 19.796875 1.78125 19.941406 1.640625 20.128906 1.578125 C 20.292969 1.523438 20.472656 1.539062 20.636719 1.488281 C 20.753906 1.449219 20.859375 1.378906 20.976562 1.351562 C 21.054688 1.335938 21.136719 1.335938 21.21875 1.332031 C 21.300781 1.324219 21.382812 1.304688 21.445312 1.253906 C 21.542969 1.414062 21.691406 1.585938 21.871094 1.652344 C 22.085938 1.734375 22.355469 1.640625 22.550781 1.765625 C 22.628906 1.8125 22.679688 1.890625 22.742188 1.953125 C 22.808594 2.019531 22.886719 2.078125 22.980469 2.074219 C 23.132812 1.96875 23.304688 1.863281 23.480469 1.792969 C 23.527344 1.773438 23.574219 1.757812 23.625 1.765625 C 23.6875 1.773438 23.738281 1.824219 23.78125 1.875 C 23.902344 2.015625 23.984375 2.183594 24.027344 2.363281 C 24.121094 2.222656 24.3125 2.148438 24.484375 2.121094 C 24.652344 2.09375 24.828125 2.089844 24.992188 2.027344 C 25.128906 1.972656 25.246094 1.871094 25.324219 1.742188 C 25.492188 1.871094 25.746094 1.878906 25.953125 1.832031 C 26.160156 1.789062 26.351562 1.691406 26.554688 1.625 C 26.992188 1.476562 27.550781 1.449219 28.003906 1.558594 C 28.050781 2.015625 28.015625 2.480469 27.894531 2.921875 C 27.800781 3.285156 27.648438 3.636719 27.636719 4.011719 C 27.671875 4.027344 27.707031 4.058594 27.726562 4.09375 C 27.75 4.128906 27.757812 4.171875 27.742188 4.207031 C 27.714844 4.265625 27.648438 4.285156 27.597656 4.316406 C 27.519531 4.367188 27.46875 4.480469 27.472656 4.574219 C 27.433594 4.703125 27.425781 4.839844 27.402344 4.976562 C 27.382812 5.109375 27.347656 5.246094 27.269531 5.359375 C 27.207031 5.449219 27.207031 5.445312 27.117188 5.511719 L 27.125 5.511719 C 27.308594 5.554688 27.519531 5.636719 27.617188 5.796875 C 27.691406 5.921875 27.691406 6.082031 27.644531 6.222656 C 27.601562 6.359375 27.511719 6.511719 27.421875 6.625 C 27.605469 6.734375 27.742188 6.917969 27.789062 7.125 C 27.824219 7.277344 27.816406 7.4375 27.859375 7.585938 C 27.917969 7.789062 28.109375 7.917969 28.285156 8.050781 C 28.171875 8.238281 28.125 8.457031 28.089844 8.675781 C 28.054688 8.894531 28.035156 9.113281 27.96875 9.324219 C 27.902344 9.53125 27.773438 9.734375 27.585938 9.851562 C 27.800781 9.996094 27.914062 10.269531 27.871094 10.519531 C 27.824219 10.773438 27.621094 10.988281 27.371094 11.050781 C 27.359375 11.03125 27.285156 11.050781 27.273438 11.070312 C 27.261719 11.089844 27.265625 11.113281 27.265625 11.136719 C 27.285156 11.359375 27.304688 11.585938 27.363281 11.804688 C 27.382812 11.882812 27.410156 11.960938 27.460938 12.023438 C 27.523438 12.089844 27.609375 12.125 27.691406 12.160156 C 27.570312 12.296875 27.53125 12.5 27.585938 12.671875 C 27.628906 12.824219 27.738281 12.945312 27.789062 13.097656 C 27.832031 13.230469 27.835938 13.394531 27.820312 13.535156 C 27.792969 13.617188 27.824219 13.710938 27.878906 13.78125 C 27.933594 13.851562 28.007812 13.902344 28.078125 13.957031 C 28.179688 14.039062 28.273438 14.132812 28.351562 14.234375 C 28.402344 14.300781 28.445312 14.371094 28.460938 14.449219 C 28.476562 14.550781 28.4375 14.660156 28.382812 14.75 Z M 28.382812 14.75 " fill-opacity="1" fill-rule="nonzero"/></g></g><g clip-path="url(#da68d28323)"><g clip-path="url(#e626b3ebf3)"><path fill="#e87e43" d="M 1.28125 0.796875 L 28.714844 0.796875 L 28.714844 28.230469 L 1.28125 28.230469 Z M 1.28125 0.796875 " fill-opacity="1" fill-rule="nonzero"/></g></g><g clip-path="url(#5eaa5dd0ae)"><path fill="#ff8c38" d="M 17.75 4.101562 L 3.984375 4.101562 L 3.984375 17.863281 C 3.984375 22.425781 7.683594 26.125 12.246094 26.125 L 17.75 26.125 C 22.3125 26.125 26.007812 22.425781 26.007812 17.863281 L 26.007812 12.359375 C 26.007812 7.796875 22.3125 4.101562 17.75 4.101562 Z M 17.75 4.101562 " fill-opacity="1" fill-rule="nonzero"/></g><g clip-path="url(#b003692050)"><path fill="#ca500d" d="M 14.964844 9.921875 C 14.734375 9.925781 14.53125 9.964844 14.332031 10.042969 C 14.003906 10.164062 13.730469 10.378906 13.546875 10.652344 C 13.335938 10.96875 13.242188 11.359375 13.273438 11.808594 C 13.292969 12.074219 13.359375 12.367188 13.46875 12.671875 C 13.640625 13.140625 13.914062 13.640625 14.289062 14.167969 C 14.492188 14.449219 14.722656 14.746094 14.980469 15.039062 C 15 15.058594 15.007812 15.070312 15.007812 15.070312 C 15.007812 15.070312 15.003906 15.070312 15.003906 15.070312 C 15.003906 15.070312 14.921875 14.996094 14.867188 14.949219 C 14.703125 14.800781 14.542969 14.644531 14.378906 14.484375 L 14.332031 14.4375 L 14.386719 14.496094 C 14.460938 14.570312 14.480469 14.589844 14.511719 14.625 C 14.664062 14.777344 14.804688 14.929688 14.941406 15.085938 C 14.960938 15.105469 14.964844 15.113281 14.964844 15.113281 C 14.964844 15.113281 14.960938 15.113281 14.960938 15.113281 C 14.941406 15.097656 14.804688 14.976562 14.75 14.929688 C 14.09375 14.378906 13.480469 13.976562 12.902344 13.714844 C 12.46875 13.515625 12.054688 13.402344 11.683594 13.378906 C 11.621094 13.375 11.605469 13.375 11.53125 13.375 C 11.457031 13.375 11.4375 13.375 11.375 13.378906 C 11.03125 13.40625 10.726562 13.515625 10.476562 13.703125 C 10.300781 13.835938 10.152344 14.003906 10.042969 14.203125 C 9.871094 14.511719 9.792969 14.878906 9.820312 15.25 C 9.84375 15.585938 9.953125 15.90625 10.132812 16.167969 C 10.230469 16.308594 10.347656 16.429688 10.480469 16.53125 C 10.71875 16.707031 11.007812 16.816406 11.335938 16.84375 C 11.484375 16.859375 11.644531 16.855469 11.804688 16.839844 C 12.484375 16.761719 13.261719 16.410156 14.109375 15.800781 C 14.378906 15.601562 14.671875 15.371094 14.945312 15.128906 C 14.953125 15.121094 14.960938 15.113281 14.964844 15.113281 C 14.964844 15.113281 14.960938 15.121094 14.9375 15.148438 C 14.761719 15.34375 14.574219 15.542969 14.378906 15.742188 C 14.351562 15.769531 14.339844 15.78125 14.351562 15.769531 C 14.363281 15.757812 14.390625 15.734375 14.410156 15.714844 C 14.589844 15.539062 14.777344 15.359375 14.949219 15.207031 C 15.007812 15.152344 15.003906 15.15625 15.007812 15.160156 C 14.996094 15.171875 14.960938 15.214844 14.933594 15.246094 C 13.910156 16.429688 13.347656 17.507812 13.277344 18.40625 C 13.269531 18.476562 13.269531 18.535156 13.269531 18.613281 C 13.269531 18.675781 13.269531 18.691406 13.273438 18.742188 C 13.304688 19.167969 13.460938 19.53125 13.738281 19.808594 C 13.96875 20.042969 14.277344 20.203125 14.628906 20.269531 C 14.71875 20.289062 14.804688 20.300781 14.910156 20.304688 C 14.941406 20.308594 15.039062 20.308594 15.078125 20.308594 C 15.234375 20.300781 15.378906 20.277344 15.523438 20.238281 C 15.894531 20.136719 16.210938 19.929688 16.425781 19.640625 C 16.609375 19.390625 16.71875 19.085938 16.742188 18.742188 C 16.746094 18.691406 16.746094 18.679688 16.746094 18.613281 C 16.746094 18.53125 16.746094 18.476562 16.742188 18.40625 C 16.699219 17.898438 16.503906 17.335938 16.15625 16.726562 C 15.875 16.238281 15.503906 15.726562 15.035156 15.1875 C 15.019531 15.171875 15.007812 15.160156 15.007812 15.160156 C 15.007812 15.15625 15.011719 15.15625 15.097656 15.234375 C 15.269531 15.386719 15.429688 15.539062 15.625 15.730469 L 15.683594 15.789062 L 15.640625 15.746094 C 15.460938 15.566406 15.289062 15.382812 15.128906 15.203125 C 15.074219 15.144531 15.050781 15.117188 15.050781 15.117188 C 15.050781 15.117188 15.050781 15.113281 15.054688 15.113281 C 15.054688 15.113281 15.066406 15.125 15.082031 15.140625 C 15.816406 15.78125 16.519531 16.253906 17.164062 16.535156 C 17.761719 16.800781 18.308594 16.902344 18.78125 16.832031 C 18.996094 16.800781 19.199219 16.734375 19.375 16.632812 C 19.5625 16.527344 19.726562 16.382812 19.855469 16.210938 C 20.078125 15.90625 20.203125 15.519531 20.203125 15.113281 C 20.203125 14.675781 20.058594 14.257812 19.796875 13.945312 C 19.742188 13.882812 19.679688 13.816406 19.613281 13.761719 C 19.351562 13.539062 19.019531 13.40625 18.640625 13.378906 C 18.546875 13.375 18.449219 13.375 18.351562 13.378906 C 17.996094 13.398438 17.609375 13.5 17.199219 13.675781 C 17.0625 13.734375 16.914062 13.808594 16.769531 13.882812 C 16.269531 14.152344 15.738281 14.527344 15.179688 15.003906 C 15.140625 15.039062 15.066406 15.101562 15.054688 15.113281 C 15.054688 15.113281 15.054688 15.113281 15.050781 15.113281 C 15.050781 15.109375 15.046875 15.113281 15.101562 15.054688 C 15.246094 14.890625 15.414062 14.714844 15.578125 14.546875 C 15.601562 14.523438 15.636719 14.488281 15.652344 14.46875 C 15.683594 14.441406 15.683594 14.441406 15.640625 14.480469 C 15.464844 14.65625 15.28125 14.828125 15.101562 14.992188 C 15.011719 15.070312 15.007812 15.074219 15.007812 15.070312 C 15.007812 15.070312 15.019531 15.058594 15.027344 15.046875 C 15.085938 14.980469 15.15625 14.898438 15.21875 14.824219 C 15.933594 13.96875 16.402344 13.175781 16.617188 12.460938 C 16.695312 12.199219 16.738281 11.957031 16.746094 11.71875 C 16.746094 11.679688 16.746094 11.558594 16.746094 11.527344 C 16.734375 11.359375 16.710938 11.222656 16.667969 11.078125 C 16.644531 10.988281 16.609375 10.90625 16.566406 10.824219 C 16.503906 10.695312 16.429688 10.582031 16.332031 10.472656 C 16.3125 10.453125 16.25 10.390625 16.226562 10.371094 C 16.070312 10.226562 15.886719 10.117188 15.683594 10.042969 C 15.496094 9.972656 15.304688 9.933594 15.09375 9.921875 C 15.070312 9.921875 14.984375 9.921875 14.964844 9.921875 Z M 14.964844 9.921875 " fill-opacity="1" fill-rule="nonzero"/></g></svg>